<svg xmlns="http://www.w3.org/2000/svg" viewBox="0 0 614 615" xml:space="preserve"><path fill="#fdfefe" d="M569.232 528.392c-4.776 3.407-9.57 3.338-14.48 1.501-34.462-12.894-68.905-25.84-103.38-38.699-16.557-6.176-33.539-11.369-49.67-18.496-21.698-9.586-32.714-27.4-33.6-50.981-.588-15.644-.187-31.328-.1-46.994.016-2.951-.638-4.621-3.678-6.033-14.946-6.94-22.342-23.206-17.661-37.943 5.106-16.078 20.324-26.08 35.834-23.552 16.998 2.77 29.213 16.915 28.419 33.628-.53 11.145-5.605 20.179-15.37 25.867-2.978 1.735-3.722 3.476-3.693 6.61.147 15.83-.157 31.668.167 47.493.295 14.421 6.985 25.436 20.505 30.719 27.837 10.877 55.955 21.034 83.967 31.46 12.09 4.5 24.203 8.937 36.31 13.395.869.32 1.762.576 4.007 1.303L308.027 107.684 79.833 496.409l.701.956c7.351-2.767 14.69-5.567 22.056-8.295 25.107-9.3 50.226-18.568 75.336-27.86 8.192-3.032 16.452-5.9 24.537-9.196 14.244-5.807 21.465-16.588 21.555-31.975.091-15.665-.059-31.332.078-46.997.027-3.032-.956-4.64-3.592-6.264-11.424-7.042-16.514-17.762-15.236-30.85 1.298-13.287 11.919-24.797 24.298-27.954 12.647-3.225 26.642 1.537 34.341 11.685 12.687 16.722 6.995 40.261-12.103 49.017-3.233 1.482-3.89 3.247-3.863 6.407.132 15.498.203 31 .022 46.498-.267 22.715-15.119 46.42-39.761 53.745-12.502 3.716-24.496 9.123-36.758 13.662-27.543 10.198-55.115 20.315-82.663 30.498-9.147 3.38-18.287 6.785-27.374 10.321-5.826 2.267-11.32 1.901-15.568-2.745-4.093-4.475-5.359-9.927-2.069-15.598 6.472-11.157 13.025-22.266 19.555-33.389 17.799-30.318 35.578-60.649 53.417-90.944 9.915-16.839 19.99-33.584 29.898-50.426 20.749-35.269 41.428-70.578 62.149-105.862 16.866-28.72 33.819-57.389 50.607-86.153 12.008-20.573 24.141-41.084 35.565-61.98 6.072-11.105 19.816-10.946 26.04-.067 24.34 42.554 49.26 84.776 74.011 127.095a16216 16216 0 0 0 39.283 66.797c10.874 18.39 21.984 36.64 32.774 55.08 31.472 53.78 62.829 107.628 94.25 161.438 3.417 5.855 7.052 11.584 10.41 17.472 3.869 6.788 3.14 11.906-2.497 17.867M221.99 341.214c1.18 8.128 8.769 15.029 16.081 14.626 8.635-.477 15.735-7.31 15.933-15.335.223-9.052-6.867-17.3-15.55-17.36-10.034-.07-17.36 8.05-16.464 18.069m164.514-15.392c-1.526-.611-3.007-1.398-4.586-1.804-6.904-1.775-14.388 1.218-17.48 6.88-3.99 7.304-3.093 14.7 2.421 19.98 5.53 5.296 13.698 6.254 19.96 2.108 9.917-6.564 9.74-19.649-.315-27.164"/><path fill="#fdfefd" d="M287.515 401.42c7.715-1.448 8.716-6.104 8.656-12.932-.356-40.149-.214-80.302-.103-120.454.008-3.208-.786-5.048-3.769-6.597-11.622-6.033-16.684-15.91-16.598-28.893.086-13 6.453-22.348 17.256-28.232 10.016-5.456 21.087-5.292 30.92.549 11.108 6.599 17.288 16.578 16.493 30.185-.724 12.386-6.442 21.24-17.373 27.04-1.452.77-2.927 3.127-2.933 4.755-.16 42.313-.092 84.627-.192 126.941-.007 3.199 1.055 4.382 4.066 5.54 20.64 7.946 31.703 24.822 31.485 44.534-.238 21.563-11.051 38.468-34.2 45.396-33.633 10.066-65.918-18.234-60.039-52.702 2.674-15.674 11.453-27.671 26.33-35.13m44.493 63.047c7.63-9.292 10.14-19.611 5.882-31.09-4.311-11.62-16.69-22.378-33.934-20.483-15.884 1.746-29.693 17.012-27.67 34.16 1.61 13.65 9.316 23.549 23.05 27.061 12.205 3.121 23.366.606 32.672-9.648M297.084 220.49c-3.689 3.67-5.61 7.949-5.34 13.312.333 6.636 4.383 12.617 10.518 14.792 7.009 2.486 14.184.449 18.765-5.326 3.835-4.835 4.069-13.321 1.041-18.695-4.613-8.189-16.986-10.243-24.984-4.083"/></svg>